<mxfile host="app.diagrams.net" modified="2023-08-16T10:29:04.918Z" agent="5.0 (X11)" etag="qM6yNzwUrz1A1C_i0kIu" version="20.8.23" type="github">
  <diagram name="Page-1" id="2zhF82C1bgts54StES3e">
    <mxGraphModel dx="1434" dy="796" grid="1" gridSize="10" guides="1" tooltips="1" connect="1" arrows="1" fold="1" page="1" pageScale="1" pageWidth="850" pageHeight="1100" math="0" shadow="0">
      <root>
        <mxCell id="0" />
        <mxCell id="1" parent="0" />
        <mxCell id="grKAgizqmmUL7Xd6gHVJ-4" value="&lt;div&gt;Interest &lt;br&gt;&lt;/div&gt;&lt;div&gt;on loans&lt;/div&gt;" style="endArrow=classic;html=1;rounded=0;entryX=0.357;entryY=-0.025;entryDx=0;entryDy=0;shape=flexArrow;strokeWidth=1;endSize=6;targetPerimeterSpacing=0;fillColor=#e1d5e7;strokeColor=#9673a6;entryPerimeter=0;verticalAlign=top;labelBorderColor=none;fontColor=default;" parent="1" target="zsLK717KQM9R8cQD8Umy-13" edge="1">
          <mxGeometry x="0.2092" y="17" width="50" height="50" relative="1" as="geometry">
            <mxPoint x="430" y="160" as="sourcePoint" />
            <mxPoint x="580" y="470" as="targetPoint" />
            <Array as="points">
              <mxPoint x="510" y="400" />
            </Array>
            <mxPoint as="offset" />
          </mxGeometry>
        </mxCell>
        <mxCell id="grKAgizqmmUL7Xd6gHVJ-5" value="&lt;div&gt;Interest&lt;/div&gt;&lt;div&gt;&amp;nbsp;on deposits&lt;/div&gt;" style="endArrow=classic;html=1;rounded=0;exitX=0.2;exitY=-0.012;exitDx=0;exitDy=0;shape=flexArrow;strokeWidth=1;endSize=6;targetPerimeterSpacing=0;fillColor=#e1d5e7;strokeColor=#9673a6;startArrow=none;startFill=0;exitPerimeter=0;entryX=0.914;entryY=1;entryDx=0;entryDy=0;entryPerimeter=0;verticalAlign=bottom;labelBorderColor=none;" parent="1" source="zsLK717KQM9R8cQD8Umy-13" target="zsLK717KQM9R8cQD8Umy-14" edge="1">
          <mxGeometry x="-0.0865" y="7" width="50" height="50" relative="1" as="geometry">
            <mxPoint x="550" y="479.5" as="sourcePoint" />
            <mxPoint x="360" y="479.5" as="targetPoint" />
            <Array as="points">
              <mxPoint x="480" y="400" />
            </Array>
            <mxPoint as="offset" />
          </mxGeometry>
        </mxCell>
        <mxCell id="zsLK717KQM9R8cQD8Umy-15" value="&lt;b&gt;External sector&lt;/b&gt;" style="rounded=0;whiteSpace=wrap;html=1;fillColor=#ffe6cc;strokeColor=#d79b00;strokeWidth=2;" parent="1" vertex="1">
          <mxGeometry x="40" y="80" width="140" height="80" as="geometry" />
        </mxCell>
        <mxCell id="zsLK717KQM9R8cQD8Umy-16" value="Interest on loans" style="endArrow=classic;html=1;rounded=0;entryX=0;entryY=0.25;entryDx=0;entryDy=0;shape=flexArrow;strokeWidth=1;endSize=6;targetPerimeterSpacing=0;fillColor=#e1d5e7;strokeColor=#9673a6;exitX=0.829;exitY=1.025;exitDx=0;exitDy=0;exitPerimeter=0;" parent="1" target="zsLK717KQM9R8cQD8Umy-13" edge="1" source="7k17rVjI0QFMR0Ng6KP7-1">
          <mxGeometry width="50" height="50" relative="1" as="geometry">
            <mxPoint x="400" y="580" as="sourcePoint" />
            <mxPoint x="450" y="370" as="targetPoint" />
          </mxGeometry>
        </mxCell>
        <mxCell id="zsLK717KQM9R8cQD8Umy-17" value="Interest on deposits" style="endArrow=classic;html=1;rounded=0;exitX=0;exitY=0.75;exitDx=0;exitDy=0;shape=flexArrow;strokeWidth=1;endSize=6;targetPerimeterSpacing=0;fillColor=#e1d5e7;strokeColor=#9673a6;startArrow=none;startFill=0;entryX=0.407;entryY=1.038;entryDx=0;entryDy=0;entryPerimeter=0;" parent="1" source="zsLK717KQM9R8cQD8Umy-13" edge="1" target="7k17rVjI0QFMR0Ng6KP7-1">
          <mxGeometry width="50" height="50" relative="1" as="geometry">
            <mxPoint x="503" y="380" as="sourcePoint" />
            <mxPoint x="400" y="620" as="targetPoint" />
          </mxGeometry>
        </mxCell>
        <mxCell id="7U-eSvjGvhqrHsPkwBtt-2" value="&lt;div&gt;Interest&lt;/div&gt;&lt;div&gt;on deposits&lt;/div&gt;" style="endArrow=classic;html=1;rounded=0;exitX=0.75;exitY=0;exitDx=0;exitDy=0;shape=flexArrow;strokeWidth=1;endSize=6;targetPerimeterSpacing=0;fillColor=#e1d5e7;strokeColor=#9673a6;startArrow=none;startFill=0;entryX=1.021;entryY=0.375;entryDx=0;entryDy=0;entryPerimeter=0;edgeStyle=orthogonalEdgeStyle;" parent="1" source="7U-eSvjGvhqrHsPkwBtt-1" target="zsLK717KQM9R8cQD8Umy-12" edge="1">
          <mxGeometry width="50" height="50" relative="1" as="geometry">
            <mxPoint x="730" y="310" as="sourcePoint" />
            <mxPoint x="780" y="200" as="targetPoint" />
            <Array as="points">
              <mxPoint x="795" y="110" />
            </Array>
          </mxGeometry>
        </mxCell>
        <mxCell id="7U-eSvjGvhqrHsPkwBtt-5" value="Imports" style="endArrow=classic;html=1;rounded=0;exitX=-0.021;exitY=0.113;exitDx=0;exitDy=0;shape=flexArrow;strokeWidth=1;endSize=6;targetPerimeterSpacing=0;fillColor=#e1d5e7;strokeColor=#9673a6;startArrow=none;startFill=0;entryX=1;entryY=0.25;entryDx=0;entryDy=0;exitPerimeter=0;" parent="1" target="zsLK717KQM9R8cQD8Umy-15" edge="1">
          <mxGeometry width="50" height="50" relative="1" as="geometry">
            <mxPoint x="282.05999999999995" y="100.03999999999996" as="sourcePoint" />
            <mxPoint x="161.96000000000004" y="100.03999999999996" as="targetPoint" />
          </mxGeometry>
        </mxCell>
        <mxCell id="7U-eSvjGvhqrHsPkwBtt-6" value="Exports" style="endArrow=classic;html=1;rounded=0;shape=flexArrow;strokeWidth=1;endSize=6;targetPerimeterSpacing=0;fillColor=#e1d5e7;strokeColor=#9673a6;startArrow=none;startFill=0;entryX=0.003;entryY=0.671;entryDx=0;entryDy=0;entryPerimeter=0;exitX=1.014;exitY=0.663;exitDx=0;exitDy=0;exitPerimeter=0;" parent="1" source="zsLK717KQM9R8cQD8Umy-15" target="zsLK717KQM9R8cQD8Umy-14" edge="1">
          <mxGeometry width="50" height="50" relative="1" as="geometry">
            <mxPoint x="170" y="130" as="sourcePoint" />
            <mxPoint x="220" y="150" as="targetPoint" />
          </mxGeometry>
        </mxCell>
        <mxCell id="7U-eSvjGvhqrHsPkwBtt-7" value="&lt;div&gt;Government&lt;/div&gt;&lt;div&gt;&amp;nbsp;consumption&lt;/div&gt;" style="endArrow=classic;html=1;rounded=0;exitX=0;exitY=0.25;exitDx=0;exitDy=0;shape=flexArrow;strokeWidth=1;endSize=6;targetPerimeterSpacing=0;fillColor=#e1d5e7;strokeColor=#9673a6;startArrow=none;startFill=0;entryX=1;entryY=0.25;entryDx=0;entryDy=0;" parent="1" source="zsLK717KQM9R8cQD8Umy-12" edge="1">
          <mxGeometry width="50" height="50" relative="1" as="geometry">
            <mxPoint x="558.9999999999998" y="100" as="sourcePoint" />
            <mxPoint x="424.0000000000002" y="100.00000000000011" as="targetPoint" />
          </mxGeometry>
        </mxCell>
        <mxCell id="7U-eSvjGvhqrHsPkwBtt-8" value="Taxes" style="endArrow=classic;html=1;rounded=0;exitX=1.008;exitY=0.637;exitDx=0;exitDy=0;shape=flexArrow;strokeWidth=1;endSize=6;targetPerimeterSpacing=0;fillColor=#e1d5e7;strokeColor=#9673a6;startArrow=none;startFill=0;exitPerimeter=0;entryX=-0.021;entryY=0.65;entryDx=0;entryDy=0;entryPerimeter=0;" parent="1" source="zsLK717KQM9R8cQD8Umy-14" target="zsLK717KQM9R8cQD8Umy-12" edge="1">
          <mxGeometry width="50" height="50" relative="1" as="geometry">
            <mxPoint x="568.9999999999998" y="200" as="sourcePoint" />
            <mxPoint x="610" y="130" as="targetPoint" />
          </mxGeometry>
        </mxCell>
        <mxCell id="7U-eSvjGvhqrHsPkwBtt-9" value="Wages" style="endArrow=classic;html=1;rounded=0;exitX=0.097;exitY=1.025;exitDx=0;exitDy=0;shape=flexArrow;strokeWidth=1;endSize=6;targetPerimeterSpacing=0;fillColor=#e1d5e7;strokeColor=#9673a6;startArrow=none;startFill=0;entryX=0.15;entryY=-0.025;entryDx=0;entryDy=0;entryPerimeter=0;exitPerimeter=0;" parent="1" target="7k17rVjI0QFMR0Ng6KP7-1" edge="1">
          <mxGeometry width="50" height="50" relative="1" as="geometry">
            <mxPoint x="285.5799999999999" y="162" as="sourcePoint" />
            <mxPoint x="159.16000000000008" y="281.0799999999999" as="targetPoint" />
          </mxGeometry>
        </mxCell>
        <mxCell id="7U-eSvjGvhqrHsPkwBtt-10" value="&lt;div&gt;Profits&lt;/div&gt;" style="endArrow=classic;html=1;rounded=0;shape=flexArrow;strokeWidth=1;endSize=6;targetPerimeterSpacing=0;fillColor=#e1d5e7;strokeColor=#9673a6;startArrow=none;startFill=0;entryX=0.379;entryY=-0.025;entryDx=0;entryDy=0;entryPerimeter=0;exitX=0.417;exitY=1.033;exitDx=0;exitDy=0;exitPerimeter=0;verticalAlign=top;" parent="1" target="7k17rVjI0QFMR0Ng6KP7-1" edge="1">
          <mxGeometry x="0.0034" width="50" height="50" relative="1" as="geometry">
            <mxPoint x="318.3800000000001" y="162.64" as="sourcePoint" />
            <mxPoint x="204.16000000000008" y="277.1199999999999" as="targetPoint" />
            <mxPoint as="offset" />
          </mxGeometry>
        </mxCell>
        <mxCell id="7U-eSvjGvhqrHsPkwBtt-12" value="&lt;div&gt;Interest&lt;/div&gt;&lt;div&gt;on bonds&lt;br&gt;&lt;/div&gt;" style="endArrow=classic;html=1;rounded=0;shape=flexArrow;strokeWidth=1;endSize=6;targetPerimeterSpacing=0;fillColor=#e1d5e7;strokeColor=#9673a6;startArrow=none;startFill=0;entryX=0.5;entryY=0;entryDx=0;entryDy=0;sourcePerimeterSpacing=0;startSize=0;exitX=0.5;exitY=1;exitDx=0;exitDy=0;" parent="1" source="zsLK717KQM9R8cQD8Umy-12" target="zsLK717KQM9R8cQD8Umy-13" edge="1">
          <mxGeometry width="50" height="50" relative="1" as="geometry">
            <mxPoint x="560" y="390" as="sourcePoint" />
            <mxPoint x="470" y="339" as="targetPoint" />
          </mxGeometry>
        </mxCell>
        <mxCell id="7U-eSvjGvhqrHsPkwBtt-14" value="Taxes" style="endArrow=classic;html=1;rounded=0;shape=flexArrow;strokeWidth=1;endSize=6;targetPerimeterSpacing=0;fillColor=#e1d5e7;strokeColor=#9673a6;startArrow=none;startFill=0;entryX=-0.015;entryY=0.835;entryDx=0;entryDy=0;exitX=1;exitY=0.25;exitDx=0;exitDy=0;verticalAlign=bottom;entryPerimeter=0;" parent="1" source="7k17rVjI0QFMR0Ng6KP7-1" target="zsLK717KQM9R8cQD8Umy-12" edge="1">
          <mxGeometry width="50" height="50" relative="1" as="geometry">
            <mxPoint x="400" y="301.96000000000004" as="sourcePoint" />
            <mxPoint x="500" y="164" as="targetPoint" />
          </mxGeometry>
        </mxCell>
        <mxCell id="7U-eSvjGvhqrHsPkwBtt-15" value="&lt;div&gt;Benefits&lt;/div&gt;" style="endArrow=classic;html=1;rounded=0;strokeWidth=1;targetPerimeterSpacing=0;fillColor=#e1d5e7;strokeColor=#9673a6;startArrow=none;startFill=0;verticalAlign=bottom;movable=1;resizable=1;rotatable=1;deletable=1;editable=1;locked=0;connectable=1;shape=flexArrow;exitX=0.164;exitY=1.05;exitDx=0;exitDy=0;exitPerimeter=0;entryX=1;entryY=0.75;entryDx=0;entryDy=0;" parent="1" source="zsLK717KQM9R8cQD8Umy-12" edge="1" target="7k17rVjI0QFMR0Ng6KP7-1">
          <mxGeometry width="50" height="50" relative="1" as="geometry">
            <mxPoint x="650" y="190" as="sourcePoint" />
            <mxPoint x="400" y="340" as="targetPoint" />
          </mxGeometry>
        </mxCell>
        <mxCell id="7U-eSvjGvhqrHsPkwBtt-17" value="&lt;div&gt;Interest&lt;/div&gt;&lt;div&gt;on deposits&lt;/div&gt;" style="endArrow=classic;html=1;rounded=0;exitX=0.75;exitY=1;exitDx=0;exitDy=0;shape=flexArrow;strokeWidth=1;endSize=6;targetPerimeterSpacing=0;fillColor=#e1d5e7;strokeColor=#9673a6;startArrow=none;startFill=0;entryX=1;entryY=0.5;entryDx=0;entryDy=0;edgeStyle=orthogonalEdgeStyle;" parent="1" source="7U-eSvjGvhqrHsPkwBtt-1" target="zsLK717KQM9R8cQD8Umy-13" edge="1">
          <mxGeometry width="50" height="50" relative="1" as="geometry">
            <mxPoint x="761" y="430" as="sourcePoint" />
            <mxPoint x="744" y="263" as="targetPoint" />
          </mxGeometry>
        </mxCell>
        <mxCell id="grKAgizqmmUL7Xd6gHVJ-1" value="Interest on loans" style="endArrow=classic;html=1;rounded=0;entryX=0.5;entryY=1;entryDx=0;entryDy=0;shape=flexArrow;strokeWidth=1;endSize=6;targetPerimeterSpacing=0;fillColor=#e1d5e7;strokeColor=#9673a6;exitX=1;exitY=0;exitDx=0;exitDy=0;" parent="1" source="zsLK717KQM9R8cQD8Umy-13" target="7U-eSvjGvhqrHsPkwBtt-1" edge="1">
          <mxGeometry width="50" height="50" relative="1" as="geometry">
            <mxPoint x="510" y="480" as="sourcePoint" />
            <mxPoint x="680" y="490" as="targetPoint" />
          </mxGeometry>
        </mxCell>
        <mxCell id="grKAgizqmmUL7Xd6gHVJ-2" value="&lt;div&gt;Interest&lt;/div&gt;&lt;div&gt;on bonds&lt;br&gt;&lt;/div&gt;" style="endArrow=classic;html=1;rounded=0;shape=flexArrow;strokeWidth=1;endSize=6;targetPerimeterSpacing=0;fillColor=#e1d5e7;strokeColor=#9673a6;startArrow=none;startFill=0;entryX=0.25;entryY=0;entryDx=0;entryDy=0;sourcePerimeterSpacing=0;startSize=0;exitX=0.75;exitY=1;exitDx=0;exitDy=0;" parent="1" source="zsLK717KQM9R8cQD8Umy-12" target="7U-eSvjGvhqrHsPkwBtt-1" edge="1">
          <mxGeometry width="50" height="50" relative="1" as="geometry">
            <mxPoint x="680" y="250" as="sourcePoint" />
            <mxPoint x="650" y="570" as="targetPoint" />
          </mxGeometry>
        </mxCell>
        <mxCell id="grKAgizqmmUL7Xd6gHVJ-3" value="Rent" style="endArrow=classic;html=1;rounded=0;shape=flexArrow;strokeWidth=1;endSize=6;targetPerimeterSpacing=0;fillColor=#e1d5e7;strokeColor=#9673a6;startArrow=none;startFill=0;exitX=0.95;exitY=-0.05;exitDx=0;exitDy=0;exitPerimeter=0;verticalAlign=top;entryX=0.957;entryY=1.038;entryDx=0;entryDy=0;entryPerimeter=0;" parent="1" source="7k17rVjI0QFMR0Ng6KP7-1" edge="1">
          <mxGeometry width="50" height="50" relative="1" as="geometry">
            <mxPoint x="280.1199999999999" y="280" as="sourcePoint" />
            <mxPoint x="385.98" y="163.03999999999996" as="targetPoint" />
          </mxGeometry>
        </mxCell>
        <mxCell id="zsLK717KQM9R8cQD8Umy-14" value="&lt;b&gt;Firm sector&lt;/b&gt;" style="rounded=0;whiteSpace=wrap;html=1;fillColor=#ffe6cc;strokeColor=#d79b00;strokeWidth=2;" parent="1" vertex="1">
          <mxGeometry x="280" y="80" width="140" height="80" as="geometry" />
        </mxCell>
        <mxCell id="zsLK717KQM9R8cQD8Umy-12" value="&lt;b&gt;Government sector&lt;br&gt;&lt;/b&gt;" style="rounded=0;whiteSpace=wrap;html=1;fillColor=#ffe6cc;strokeColor=#d79b00;strokeWidth=2;" parent="1" vertex="1">
          <mxGeometry x="600" y="80" width="140" height="80" as="geometry" />
        </mxCell>
        <mxCell id="7U-eSvjGvhqrHsPkwBtt-1" value="&lt;b&gt;Central bank&lt;/b&gt;" style="rounded=0;whiteSpace=wrap;html=1;fillColor=#ffe6cc;strokeColor=#d79b00;strokeWidth=2;" parent="1" vertex="1">
          <mxGeometry x="690" y="290" width="140" height="80" as="geometry" />
        </mxCell>
        <mxCell id="zsLK717KQM9R8cQD8Umy-13" value="&lt;b&gt;Banking sector&lt;/b&gt;" style="rounded=0;whiteSpace=wrap;html=1;fillColor=#ffe6cc;strokeColor=#d79b00;strokeWidth=2;" parent="1" vertex="1">
          <mxGeometry x="550" y="560" width="140" height="80" as="geometry" />
        </mxCell>
        <mxCell id="7k17rVjI0QFMR0Ng6KP7-1" value="&lt;b&gt;Household sector&lt;/b&gt;" style="rounded=0;whiteSpace=wrap;html=1;fillColor=#ffe6cc;strokeColor=#d79b00;strokeWidth=2;" vertex="1" parent="1">
          <mxGeometry x="190" y="360" width="140" height="80" as="geometry" />
        </mxCell>
        <mxCell id="7U-eSvjGvhqrHsPkwBtt-11" value="&lt;div&gt;Consumption&lt;/div&gt;" style="endArrow=classic;html=1;rounded=0;shape=flexArrow;strokeWidth=1;endSize=6;targetPerimeterSpacing=0;fillColor=#e1d5e7;strokeColor=#9673a6;startArrow=none;startFill=0;entryX=0.75;entryY=1;entryDx=0;entryDy=0;verticalAlign=bottom;exitX=0.707;exitY=-0.025;exitDx=0;exitDy=0;exitPerimeter=0;" parent="1" source="7k17rVjI0QFMR0Ng6KP7-1" edge="1">
          <mxGeometry width="50" height="50" relative="1" as="geometry">
            <mxPoint x="245.92000000000007" y="277.1199999999999" as="sourcePoint" />
            <mxPoint x="355" y="161" as="targetPoint" />
          </mxGeometry>
        </mxCell>
      </root>
    </mxGraphModel>
  </diagram>
</mxfile>
